<svg xmlns="http://www.w3.org/2000/svg" xmlns:xlink="http://www.w3.org/1999/xlink" xml:lang="en" height="179.60000000000002pt" width="421.76000000000005pt" viewBox="-22.599999999999994 -152.00000000000003 421.76000000000005 179.60000000000002"><circle cx="3.3065463576978533e-15" cy="-54.0" r="18.0" style="stroke:black;fill:none;stroke-width:2.0;stroke-dasharray:-;" /><circle cx="376.56000000000006" cy="-54.0" r="18.0" style="stroke:black;fill:none;stroke-width:2.0;stroke-dasharray:-;" /><path d="M 0.0,-0.0 L 2.204364238465236e-15,-36.0 L 2.204364238465236e-15,-36.0 M 4.408728476930472e-15,-72.0 L 4.408728476930472e-15,-72.0 L 6.613092715395707e-15,-108.0" style="stroke:black;fill:none;stroke-width:2.0;stroke-dasharray:-;stroke-linecap:round;stroke-linejoin:round;" /><path d="M 2.7554552980815448e-15,-45.0 L 3.3065463576978533e-15,-54.0" style="stroke:black;fill:none;stroke-width:2.0;stroke-dasharray:-;stroke-linecap:round;stroke-linejoin:round;" /><path d="M 3.7351727373994275e-15 -61.0 L 2.700000000000003 -54.0 L -2.6999999999999966 -54.0 Z" style="stroke:black;fill:black;stroke-linecap:butt;stroke-linejoin:miter;" /><path d="M 6.613092715395707e-15,-108.0 L 27.000000000000007,-108.0 L 54.00000000000001,-108.0" style="stroke:black;fill:none;stroke-width:2.0;stroke-dasharray:-;stroke-linecap:round;stroke-linejoin:round;" /><path d="M 54.00000000000001,-108.0 L 54.0,-72.0 L 63.0,-69.0 L 45.0,-63.0 L 63.0,-57.00000000000001 L 45.0,-51.0 L 63.0,-45.0 L 45.0,-39.00000000000001 L 53.99999999999999,-36.0 L 53.99999999999999,-0.0" style="stroke:black;fill:none;stroke-width:2.0;stroke-dasharray:-;stroke-linecap:round;stroke-linejoin:round;" /><path d="M 0.0,-0.0 L 26.999999999999996,-0.0 L 53.99999999999999,-0.0" style="stroke:black;fill:none;stroke-width:2.0;stroke-dasharray:-;stroke-linecap:round;stroke-linejoin:round;" /><path d="M 54.00000000000001,-108.0 L 64.80000000000001,-108.0 L 75.60000000000001,-108.0" style="stroke:black;fill:none;stroke-width:2.0;stroke-dasharray:-;stroke-linecap:round;stroke-linejoin:round;" /><path d="M 75.60000000000001,-108.0 M 84.24,-111.60000000000001 L 100.8,-117.0 M 111.60000000000001,-122.39999999999999" style="stroke:black;fill:none;stroke-width:2.0;stroke-dasharray:-;stroke-linecap:round;stroke-linejoin:round;" /><path d="M 107.28,-122.39999999999999 L 116.28,-122.39999999999999 L 125.28,-122.39999999999999" style="stroke:black;fill:none;stroke-width:2.0;stroke-dasharray:-;stroke-linecap:round;stroke-linejoin:round;" /><path d="M 125.28,-122.39999999999999 L 125.28,-86.39999999999999 L 126.74291178988214,-86.36683381018037 L 128.24418656103867,-86.26593035405703 L 129.75218015806695,-86.0962594271158 L 131.23510680487357,-85.85824031868262 L 132.66170909131364,-85.55373297406344 L 134.0019168228317,-85.18599879026297 L 135.22748084574658,-84.75963187163772 L 136.31256848829022,-84.28046219448991 L 137.23430806658047,-83.75543272171727 L 137.9732709783277,-83.19245305771932 L 138.5138812226123,-82.60023272825029 L 138.84474371379702,-81.98809759937733 L 138.95888446931107,-81.36579330510031 L 138.85389760858243,-80.74327982702329 L 138.53199606464636,-80.13052155596625 L 137.99996493952173,-79.5372772606386 L 137.2690184865391,-78.97289439045485 L 136.35456373417423,-78.44611204821626 L 135.27587573376917,-77.96487678563868 L 134.0556912763309,-77.53617510442267 L 132.7197296421223,-77.16588619344078 L 131.29615048477723,-76.85865800607542 L 129.81496027676056,-76.61780928977255 L 128.3073798272299,-76.44525963285146 L 126.80518620387699,-76.34148900305661 L 125.34004292984598,-76.30552763070624 L 123.94283257396526,-76.33497644968226 L 122.64300580208311,-76.42605766540267 L 121.46796061032663,-76.57369438389475 L 120.44246482492427,-76.7716176235327 L 119.5881340412497,-77.01249845382573 L 118.92297600618794,-77.28810247600997 L 118.46101104741867,-77.58946338927308 L 118.21197655028047,-77.90707198414964 L 118.18112171130916,-78.23107657944831 L 118.369096894674,-78.55149067786334 L 118.77193992367785,-78.85840346326577 L 119.38115959627189,-79.14218870277242 L 120.18391466422877,-79.39370765031484 L 121.16328450341706,-79.6045016748688 L 122.29862576993774,-79.76697055308898 L 123.5660075244564,-79.87453266826346 L 124.93871565309792,-79.92176373888361 L 126.38781595262397,-79.9045111526823 L 127.88276401107666,-79.81998149618568 L 129.39204902870804,-79.66679943481417 L 130.88385800861542,-79.44503670244652 L 132.326746317146,-79.15621058939948 L 133.6903004798705,-78.80325196069363 L 134.94577924258675,-78.3904434787226 L 136.06671938494668,-77.92332933247991 L 137.02949351725223,-77.40859837608801 L 137.81380810307311,-76.85394313985779 L 138.4031312102707,-76.26789768567033 L 138.7850409742104,-75.65965772439625 L 138.95148742818924,-75.03888678695128 L 138.8989621821662,-74.41551253455225 L 138.6285723732754,-73.79951750158415 L 138.14601732937894,-73.20072868184018 L 137.46146843754914,-72.62861039327582 L 136.5893547496358,-72.09206478731352 L 135.54805884396455,-71.59924420760034 L 134.35952935385177,-71.15737935335677 L 133.04881833013337,-70.77262686932212 L 131.64355318926872,-70.44993957482482 L 130.17335437739706,-70.19296206731374 L 128.66921102493586,-70.00395390083938 L 127.16282775179053,-69.88374195874358 L 125.68595639134107,-69.83170302445497 L 124.26972671925392,-69.84577691776643 L 122.94399029414474,-69.92250991970582 L 121.73669124074348,-70.05712757068176 L 120.67327723831399,-70.24363530745183 L 119.7761631296264,-70.47494481766768 L 119.0642584566344,-70.74302344867196 L 118.55256888155047,-71.03906352128017 L 118.25187989464122,-71.35366797971902 L 118.1685294756106,-71.6770484645569 L 118.30427450045717,-71.99923163360712 L 118.65625370970739,-72.31026938193315 L 119.21704801858739,-72.60044852989805 L 119.97483689790423,-72.86049555941385 L 120.91364752941023,-73.08177208292103 L 122.01369148390656,-73.25645692496597 L 123.25178182552067,-73.37771097842588 L 124.60182185035448,-73.4398213605106 L 126.03535515777673,-73.43832182999358 L 127.52216545985232,-73.3700869274946 L 129.03091348601126,-73.23339785450749 L 130.5297975581594,-73.02797870256231 L 131.98722391250288,-72.75500226887657 L 133.37247263891538,-72.4170653359122 L 134.65634520105164,-72.01813393590051 L 135.81177988865443,-71.56345975405992 L 136.81442222943488,-71.0594694325752 L 137.6431383372754,-70.51362910861006 L 138.280460376304,-69.93428704164701 L 138.7129547512642,-69.3304976472846 L 138.93150526339278,-68.71183064654207 L 138.93150526339278,-68.08816935345794 L 138.7129547512642,-67.46950235271541 L 138.28046037630403,-66.86571295835303 L 137.64313833727542,-66.28637089138995 L 136.81442222943494,-65.74053056742483 L 135.81177988865448,-65.23654024594009 L 134.65634520105172,-64.7818660640995 L 133.37247263891547,-64.38293466408783 L 131.98722391250294,-64.04499773112344 L 130.5297975581595,-63.7720212974377 L 129.03091348601131,-63.566602145492524 L 127.52216545985236,-63.42991307250541 L 126.03535515777679,-63.36167817000641 L 124.60182185035457,-63.360178639489384 L 123.25178182552077,-63.422289021574095 L 122.01369148390658,-63.54354307503401 L 120.91364752941027,-63.71822791707895 L 119.97483689790427,-63.939504440586134 L 119.2170480185874,-64.19955147010192 L 118.6562537097074,-64.48973061806682 L 118.30427450045718,-64.80076836639284 L 118.1685294756106,-65.12295153544306 L 118.2518798946412,-65.44633202028095 L 118.55256888155044,-65.7609364787198 L 119.06425845663438,-66.05697655132802 L 119.77616312962634,-66.32505518233229 L 120.67327723831396,-66.55636469254814 L 121.73669124074343,-66.74287242931824 L 122.94399029414465,-66.87749008029417 L 124.2697267192539,-66.95422308223357 L 125.685956391341,-66.96829697554503 L 127.16282775179045,-66.91625804125641 L 128.66921102493575,-66.79604609916062 L 130.17335437739703,-66.60703793268627 L 131.64355318926863,-66.35006042517517 L 133.04881833013332,-66.02737313067789 L 134.35952935385166,-65.64262064664325 L 135.5480588439645,-65.20075579239968 L 136.58935474963576,-64.7079352126865 L 137.4614684375491,-64.17138960672419 L 138.1460173293789,-63.59927131815985 L 138.62857237327538,-63.00048249841586 L 138.89896218216617,-62.38448746544778 L 138.95148742818924,-61.761113213048766 L 138.7850409742104,-61.14034227560376 L 138.40313121027071,-60.53210231432968 L 137.81380810307314,-59.94605686014225 L 137.02949351725226,-59.39140162391202 L 136.0667193849467,-58.87667066752009 L 134.9457792425868,-58.40955652127741 L 133.6903004798706,-57.9967480393064 L 132.32674631714607,-57.64378941060054 L 130.88385800861548,-57.35496329755348 L 129.3920490287081,-57.133200565185845 L 127.88276401107676,-56.98001850381433 L 126.38781595262401,-56.8954888473177 L 124.93871565309796,-56.87823626111638 L 123.56600752445647,-56.925467331736535 L 122.29862576993781,-57.033029446911 L 121.16328450341709,-57.19549832513119 L 120.1839146642288,-57.406292349685145 L 119.38115959627191,-57.65781129722757 L 118.77193992367786,-57.941596536734195 L 118.369096894674,-58.24850932213664 L 118.18112171130916,-58.56892342055167 L 118.21197655028045,-58.89292801585034 L 118.46101104741864,-59.210536610726884 L 118.92297600618792,-59.511897523990015 L 119.58813404124966,-59.78750154617424 L 120.4424648249242,-60.02838237646728 L 121.4679606103266,-60.22630561610524 L 122.64300580208304,-60.373942334597324 L 123.94283257396519,-60.465023550317724 L 125.34004292984586,-60.49447236929376 L 126.80518620387693,-60.45851099694338 L 128.30737982722982,-60.35474036714854 L 129.81496027676047,-60.18219071022744 L 131.29615048477712,-59.941341993924595 L 132.71972964212227,-59.63411380655923 L 134.05569127633083,-59.26382489557734 L 135.2758757337691,-58.835123214361346 L 136.3545637341742,-58.35388795178375 L 137.26901848653904,-57.82710560954518 L 137.9999649395217,-57.262722739361415 L 138.53199606464634,-56.66947844403379 L 138.85389760858243,-56.05672017297672 L 138.95888446931107,-55.4342066948997 L 138.84474371379702,-54.81190240062271 L 138.51388122261233,-54.19976727174974 L 137.97327097832772,-53.60754694228069 L 137.2343080665805,-53.04456727828274 L 136.31256848829028,-52.51953780551011 L 135.2274808457466,-52.04036812836229 L 134.00191682283173,-51.61400120973703 L 132.6617090913137,-51.246267025936554 L 131.23510680487365,-50.94175968131739 L 129.75218015806698,-50.703740572884215 L 128.24418656103873,-50.534069645942964 L 126.74291178988221,-50.43316618981962 L 125.28000000000009,-50.4 L 125.28000000000009,-14.399999999999997" style="stroke:black;fill:none;stroke-width:2.0;stroke-dasharray:-;stroke-linecap:round;stroke-linejoin:round;" /><path d="M 125.28,-122.39999999999999 L 161.28000000000003,-122.39999999999999 L 197.28000000000003,-122.39999999999999" style="stroke:black;fill:none;stroke-width:2.0;stroke-dasharray:-;stroke-linecap:round;stroke-linejoin:round;" /><path d="M 197.28000000000003,-122.39999999999999 L 197.28000000000003,-86.39999999999999 L 206.28000000000003,-83.39999999999999 L 188.28000000000003,-77.39999999999999 L 206.28000000000003,-71.4 L 188.28000000000003,-65.4 L 206.28000000000003,-59.4 L 188.28000000000003,-53.400000000000006 L 197.28000000000003,-50.4 L 197.27999999999997,-14.399999999999997" style="stroke:black;fill:none;stroke-width:2.0;stroke-dasharray:-;stroke-linecap:round;stroke-linejoin:round;" /><path d="M 197.28000000000003,-122.39999999999999 L 208.08,-122.39999999999999 L 218.88,-122.39999999999999" style="stroke:black;fill:none;stroke-width:2.0;stroke-dasharray:-;stroke-linecap:round;stroke-linejoin:round;" /><path d="M 218.88,-122.39999999999999 M 227.52,-126.0 L 244.08,-131.4 M 254.88,-136.79999999999998" style="stroke:black;fill:none;stroke-width:2.0;stroke-dasharray:-;stroke-linecap:round;stroke-linejoin:round;" /><path d="M 250.56,-136.79999999999998 L 259.56,-136.79999999999998 L 268.56,-136.79999999999998" style="stroke:black;fill:none;stroke-width:2.0;stroke-dasharray:-;stroke-linecap:round;stroke-linejoin:round;" /><path d="M 268.56,-136.79999999999998 L 268.56,-86.03999999999999 M 277.56,-86.03999999999999 L 259.56,-86.03999999999999 M 277.56,-79.56 L 259.56,-79.56 M 268.56,-79.56 L 268.55999999999995,-28.799999999999994" style="stroke:black;fill:none;stroke-width:2.0;stroke-dasharray:-;stroke-linecap:round;stroke-linejoin:round;" /><path d="M 250.56,-108.0 L 259.56,-108.0 L 268.56,-108.0" style="stroke:black;fill:none;stroke-width:2.0;stroke-dasharray:-;stroke-linecap:round;stroke-linejoin:round;" /><path d="M 268.56,-108.0 L 304.56000000000006,-108.0 L 307.56,-117.0 L 313.56000000000006,-99.0 L 319.56,-117.0 L 325.56,-99.0 L 331.56000000000006,-117.0 L 337.56,-99.0 L 340.56000000000006,-108.0 L 376.56000000000006,-108.0" style="stroke:black;fill:none;stroke-width:2.0;stroke-dasharray:-;stroke-linecap:round;stroke-linejoin:round;" /><path d="M 376.56000000000006,-108.0 L 376.56000000000006,-72.0 L 376.56000000000006,-72.0 M 376.56000000000006,-36.0 L 376.56000000000006,-36.0 L 376.56000000000006,-0.0" style="stroke:black;fill:none;stroke-width:2.0;stroke-dasharray:-;stroke-linecap:round;stroke-linejoin:round;" /><path d="M 380.16,-45.0 L 372.96000000000004,-45.0" style="stroke:black;fill:none;stroke-width:2.0;stroke-dasharray:-;stroke-linecap:round;stroke-linejoin:round;" /><path d="M 376.56000000000006,-66.60000000000001 L 376.56000000000006,-59.4" style="stroke:black;fill:none;stroke-width:2.0;stroke-dasharray:-;stroke-linecap:round;stroke-linejoin:round;" /><path d="M 380.16,-63.0 L 372.96000000000004,-63.0" style="stroke:black;fill:none;stroke-width:2.0;stroke-dasharray:-;stroke-linecap:round;stroke-linejoin:round;" /><path d="M 125.28000000000009,-14.399999999999997 L 125.28000000000009,-7.199999999999998 L 125.28000000000009,-0.0" style="stroke:black;fill:none;stroke-width:2.0;stroke-dasharray:-;stroke-linecap:round;stroke-linejoin:round;" /><path d="M 197.27999999999997,-14.399999999999997 L 197.27999999999997,-7.199999999999998 L 197.27999999999997,-0.0" style="stroke:black;fill:none;stroke-width:2.0;stroke-dasharray:-;stroke-linecap:round;stroke-linejoin:round;" /><path d="M 268.55999999999995,-28.799999999999994 L 268.55999999999995,-14.399999999999997 L 268.55999999999995,-0.0" style="stroke:black;fill:none;stroke-width:2.0;stroke-dasharray:-;stroke-linecap:round;stroke-linejoin:round;" /><path d="M 376.56000000000006,-0.0" style="stroke:black;fill:none;stroke-width:2.0;stroke-dasharray:-;stroke-linecap:round;stroke-linejoin:round;" /><path d="M 53.99999999999999,-0.0 L 89.64000000000004,-0.0 L 125.28000000000009,-0.0" style="stroke:black;fill:none;stroke-width:2.0;stroke-dasharray:-;stroke-linecap:round;stroke-linejoin:round;" /><path d="M 125.28000000000009,-0.0 L 161.28000000000003,-0.0 L 197.27999999999997,-0.0" style="stroke:black;fill:none;stroke-width:2.0;stroke-dasharray:-;stroke-linecap:round;stroke-linejoin:round;" /><path d="M 197.27999999999997,-0.0 L 232.91999999999996,-0.0 L 268.55999999999995,-0.0" style="stroke:black;fill:none;stroke-width:2.0;stroke-dasharray:-;stroke-linecap:round;stroke-linejoin:round;" /><path d="M 268.55999999999995,-0.0 L 322.56000000000006,-0.0 L 376.56000000000006,-0.0" style="stroke:black;fill:none;stroke-width:2.0;stroke-dasharray:-;stroke-linecap:round;stroke-linejoin:round;" /><text x="-5.51091059616309e-16" y="-5.0" dominant-baseline="hanging" fill="black" font-size="14" font-family="sans" text-anchor="middle"><tspan x="-5.51091059616309e-16" dy="14">I<tspan baseline-shift="-2" font-size="smaller">s</tspan></tspan></text><text x="53.999999999999986" y="-5.0" dominant-baseline="hanging" fill="black" font-size="14" font-family="sans" text-anchor="middle"><tspan x="53.999999999999986" dy="14">R<tspan baseline-shift="-2" font-size="smaller">a</tspan></tspan></text><circle cx="79.92" cy="-108.0" r="4.32" style="stroke:black;fill:white;stroke-width:2.0;stroke-dasharray:-;" /><circle cx="107.28" cy="-93.60000000000001" r="4.32" style="stroke:black;fill:white;stroke-width:2.0;stroke-dasharray:-;" /><circle cx="107.28" cy="-122.39999999999999" r="4.32" style="stroke:black;fill:white;stroke-width:2.0;stroke-dasharray:-;" /><text x="121.67999999999999" y="-140.0" dominant-baseline="central" fill="black" font-size="14" font-family="sans" text-anchor="start"><tspan x="121.67999999999999" dy="14">a</tspan></text><text x="121.67999999999999" y="-111.2" dominant-baseline="central" fill="black" font-size="14" font-family="sans" text-anchor="start"><tspan x="121.67999999999999" dy="14">b</tspan></text><text x="83.52000000000001" y="-111.2" dominant-baseline="hanging" fill="black" font-size="14" font-family="sans" text-anchor="middle"><tspan x="83.52000000000001" dy="14">t=0</tspan></text><text x="144.35888446931108" y="-82.39999999999999" dominant-baseline="central" fill="black" font-size="14" font-family="sans" text-anchor="start"><tspan x="144.35888446931108" dy="14">L</tspan></text><text x="190.08" y="-140.0" dominant-baseline="central" fill="black" font-size="14" font-family="sans" text-anchor="end"><tspan x="190.08" dy="14">+</tspan></text><text x="211.68" y="-82.39999999999999" dominant-baseline="central" fill="black" font-size="14" font-family="sans" text-anchor="start"><tspan x="211.68" dy="14">R</tspan></text><text x="200.88" y="-59.0" dominant-baseline="hanging" fill="black" font-size="14" font-family="sans" text-anchor="middle"><tspan x="200.88" dy="14">v<tspan baseline-shift="-2" font-size="smaller">o</tspan>(t)</tspan></text><text x="200.87999999999997" y="-13.999999999999996" dominant-baseline="hanging" fill="black" font-size="14" font-family="sans" text-anchor="middle"><tspan x="200.87999999999997" dy="14">−</tspan></text><circle cx="223.20000000000002" cy="-122.39999999999999" r="4.32" style="stroke:black;fill:white;stroke-width:2.0;stroke-dasharray:-;" /><circle cx="250.56" cy="-108.0" r="4.32" style="stroke:black;fill:white;stroke-width:2.0;stroke-dasharray:-;" /><circle cx="250.56" cy="-136.79999999999998" r="4.32" style="stroke:black;fill:white;stroke-width:2.0;stroke-dasharray:-;" /><text x="264.96000000000004" y="-154.4" dominant-baseline="central" fill="black" font-size="14" font-family="sans" text-anchor="start"><tspan x="264.96000000000004" dy="14">c</tspan></text><text x="264.96000000000004" y="-125.60000000000001" dominant-baseline="central" fill="black" font-size="14" font-family="sans" text-anchor="start"><tspan x="264.96000000000004" dy="14">d</tspan></text><text x="226.79999999999998" y="-125.6" dominant-baseline="hanging" fill="black" font-size="14" font-family="sans" text-anchor="middle"><tspan x="226.79999999999998" dy="14">t=0</tspan></text><text x="282.96" y="-96.8" dominant-baseline="central" fill="black" font-size="14" font-family="sans" text-anchor="start"><tspan x="282.96" dy="14">C</tspan></text><text x="322.56000000000006" y="-136.39999999999998" dominant-baseline="ideographic" fill="black" font-size="14" font-family="sans" text-anchor="middle"><tspan x="322.56000000000006" dy="14">R<tspan baseline-shift="-2" font-size="smaller">b</tspan></tspan></text><text x="376.56000000000006" y="-127.39999999999999" dominant-baseline="ideographic" fill="black" font-size="14" font-family="sans" text-anchor="middle"><tspan x="376.56000000000006" dy="14">V<tspan baseline-shift="-2" font-size="smaller">dc</tspan></tspan></text><circle cx="54.00000000000001" cy="-108.0" r="2.6999999999999997" style="stroke:black;fill:black;stroke-width:2.0;stroke-dasharray:-;" /><circle cx="53.99999999999999" cy="-0.0" r="2.6999999999999997" style="stroke:black;fill:black;stroke-width:2.0;stroke-dasharray:-;" /><circle cx="125.28" cy="-122.39999999999999" r="2.6999999999999997" style="stroke:black;fill:black;stroke-width:2.0;stroke-dasharray:-;" /><circle cx="197.28000000000003" cy="-122.39999999999999" r="2.6999999999999997" style="stroke:black;fill:black;stroke-width:2.0;stroke-dasharray:-;" /><circle cx="197.27999999999997" cy="-14.399999999999997" r="2.6999999999999997" style="stroke:black;fill:black;stroke-width:2.0;stroke-dasharray:-;" /><circle cx="268.56" cy="-136.79999999999998" r="2.6999999999999997" style="stroke:black;fill:black;stroke-width:2.0;stroke-dasharray:-;" /></svg>