<?xml version="1.0" encoding="UTF-8"?>
<svg xmlns="http://www.w3.org/2000/svg" xmlns:xlink="http://www.w3.org/1999/xlink" width="254.45" height="161.984" viewBox="0 0 254.45 161.984">
<defs>
<g>
<g id="glyph-0-0">
<path d="M 6.5625 -2.296875 C 6.734375 -2.296875 6.921875 -2.296875 6.921875 -2.5 C 6.921875 -2.6875 6.734375 -2.6875 6.5625 -2.6875 L 1.171875 -2.6875 C 1 -2.6875 0.828125 -2.6875 0.828125 -2.5 C 0.828125 -2.296875 1 -2.296875 1.171875 -2.296875 Z M 6.5625 -2.296875 "/>
</g>
<g id="glyph-1-0">
<path d="M 4.078125 -2.296875 L 6.859375 -2.296875 C 7 -2.296875 7.1875 -2.296875 7.1875 -2.5 C 7.1875 -2.6875 7 -2.6875 6.859375 -2.6875 L 4.078125 -2.6875 L 4.078125 -5.484375 C 4.078125 -5.625 4.078125 -5.8125 3.875 -5.8125 C 3.671875 -5.8125 3.671875 -5.625 3.671875 -5.484375 L 3.671875 -2.6875 L 0.890625 -2.6875 C 0.75 -2.6875 0.5625 -2.6875 0.5625 -2.5 C 0.5625 -2.296875 0.75 -2.296875 0.890625 -2.296875 L 3.671875 -2.296875 L 3.671875 0.5 C 3.671875 0.640625 3.671875 0.828125 3.875 0.828125 C 4.078125 0.828125 4.078125 0.640625 4.078125 0.5 Z M 4.078125 -2.296875 "/>
</g>
<g id="glyph-1-1">
<path d="M 1.90625 -3.765625 C 1.90625 -4.0625 1.671875 -4.296875 1.390625 -4.296875 C 1.09375 -4.296875 0.859375 -4.0625 0.859375 -3.765625 C 0.859375 -3.484375 1.09375 -3.234375 1.390625 -3.234375 C 1.671875 -3.234375 1.90625 -3.484375 1.90625 -3.765625 Z M 1.90625 -0.53125 C 1.90625 -0.8125 1.671875 -1.0625 1.390625 -1.0625 C 1.09375 -1.0625 0.859375 -0.8125 0.859375 -0.53125 C 0.859375 -0.234375 1.09375 0 1.390625 0 C 1.671875 0 1.90625 -0.234375 1.90625 -0.53125 Z M 1.90625 -0.53125 "/>
</g>
<g id="glyph-2-0">
<path d="M 6.265625 -5.671875 C 6.75 -6.453125 7.171875 -6.484375 7.53125 -6.5 C 7.65625 -6.515625 7.671875 -6.671875 7.671875 -6.6875 C 7.671875 -6.765625 7.609375 -6.8125 7.53125 -6.8125 C 7.28125 -6.8125 6.984375 -6.78125 6.71875 -6.78125 C 6.390625 -6.78125 6.046875 -6.8125 5.734375 -6.8125 C 5.671875 -6.8125 5.546875 -6.8125 5.546875 -6.625 C 5.546875 -6.515625 5.625 -6.5 5.703125 -6.5 C 5.96875 -6.484375 6.15625 -6.375 6.15625 -6.171875 C 6.15625 -6.015625 6.015625 -5.796875 6.015625 -5.796875 L 2.953125 -0.921875 L 2.265625 -6.203125 C 2.265625 -6.375 2.5 -6.5 2.953125 -6.5 C 3.09375 -6.5 3.203125 -6.5 3.203125 -6.703125 C 3.203125 -6.78125 3.125 -6.8125 3.078125 -6.8125 C 2.671875 -6.8125 2.25 -6.78125 1.828125 -6.78125 C 1.65625 -6.78125 1.46875 -6.78125 1.28125 -6.78125 C 1.109375 -6.78125 0.921875 -6.8125 0.75 -6.8125 C 0.671875 -6.8125 0.5625 -6.8125 0.5625 -6.625 C 0.5625 -6.5 0.640625 -6.5 0.8125 -6.5 C 1.359375 -6.5 1.375 -6.40625 1.40625 -6.15625 L 2.1875 -0.015625 C 2.21875 0.1875 2.265625 0.21875 2.390625 0.21875 C 2.546875 0.21875 2.59375 0.171875 2.671875 0.046875 Z M 6.265625 -5.671875 "/>
</g>
<g id="glyph-2-1">
<path d="M 3.734375 -6.125 C 3.796875 -6.359375 3.828125 -6.453125 4.015625 -6.484375 C 4.109375 -6.5 4.421875 -6.5 4.625 -6.5 C 5.328125 -6.5 6.4375 -6.5 6.4375 -5.515625 C 6.4375 -5.171875 6.28125 -4.484375 5.890625 -4.09375 C 5.625 -3.84375 5.109375 -3.515625 4.203125 -3.515625 L 3.09375 -3.515625 Z M 5.171875 -3.390625 C 6.1875 -3.609375 7.359375 -4.3125 7.359375 -5.3125 C 7.359375 -6.171875 6.46875 -6.8125 5.15625 -6.8125 L 2.328125 -6.8125 C 2.125 -6.8125 2.03125 -6.8125 2.03125 -6.609375 C 2.03125 -6.5 2.125 -6.5 2.3125 -6.5 C 2.328125 -6.5 2.515625 -6.5 2.6875 -6.484375 C 2.875 -6.453125 2.953125 -6.453125 2.953125 -6.3125 C 2.953125 -6.28125 2.953125 -6.25 2.921875 -6.125 L 1.578125 -0.78125 C 1.484375 -0.390625 1.46875 -0.3125 0.671875 -0.3125 C 0.5 -0.3125 0.40625 -0.3125 0.40625 -0.109375 C 0.40625 0 0.53125 0 0.546875 0 C 0.828125 0 1.53125 -0.03125 1.796875 -0.03125 C 2.078125 -0.03125 2.796875 0 3.078125 0 C 3.15625 0 3.265625 0 3.265625 -0.203125 C 3.265625 -0.3125 3.1875 -0.3125 2.984375 -0.3125 C 2.625 -0.3125 2.34375 -0.3125 2.34375 -0.484375 C 2.34375 -0.546875 2.359375 -0.59375 2.375 -0.65625 L 3.03125 -3.296875 L 4.21875 -3.296875 C 5.125 -3.296875 5.296875 -2.734375 5.296875 -2.390625 C 5.296875 -2.25 5.21875 -1.9375 5.15625 -1.703125 C 5.09375 -1.421875 5 -1.0625 5 -0.859375 C 5 0.21875 6.203125 0.21875 6.328125 0.21875 C 7.171875 0.21875 7.53125 -0.78125 7.53125 -0.921875 C 7.53125 -1.046875 7.421875 -1.046875 7.40625 -1.046875 C 7.3125 -1.046875 7.296875 -0.984375 7.28125 -0.90625 C 7.03125 -0.171875 6.59375 0 6.375 0 C 6.046875 0 5.96875 -0.21875 5.96875 -0.609375 C 5.96875 -0.921875 6.03125 -1.421875 6.078125 -1.75 C 6.09375 -1.890625 6.109375 -2.078125 6.109375 -2.21875 C 6.109375 -2.984375 5.4375 -3.296875 5.171875 -3.390625 Z M 5.171875 -3.390625 "/>
</g>
<g id="glyph-2-2">
<path d="M 7.53125 -5.765625 C 7.640625 -6.15625 7.8125 -6.46875 8.609375 -6.5 C 8.65625 -6.5 8.78125 -6.515625 8.78125 -6.703125 C 8.78125 -6.703125 8.78125 -6.8125 8.65625 -6.8125 C 8.328125 -6.8125 7.96875 -6.78125 7.640625 -6.78125 C 7.3125 -6.78125 6.953125 -6.8125 6.625 -6.8125 C 6.5625 -6.8125 6.453125 -6.8125 6.453125 -6.609375 C 6.453125 -6.5 6.546875 -6.5 6.625 -6.5 C 7.203125 -6.484375 7.3125 -6.28125 7.3125 -6.0625 C 7.3125 -6.03125 7.28125 -5.875 7.28125 -5.859375 L 6.15625 -1.421875 L 3.953125 -6.625 C 3.875 -6.796875 3.875 -6.8125 3.640625 -6.8125 L 2.296875 -6.8125 C 2.109375 -6.8125 2.015625 -6.8125 2.015625 -6.609375 C 2.015625 -6.5 2.109375 -6.5 2.296875 -6.5 C 2.34375 -6.5 2.96875 -6.5 2.96875 -6.40625 L 1.640625 -1.0625 C 1.53125 -0.65625 1.359375 -0.34375 0.5625 -0.3125 C 0.5 -0.3125 0.390625 -0.296875 0.390625 -0.109375 C 0.390625 -0.046875 0.4375 0 0.515625 0 C 0.84375 0 1.1875 -0.03125 1.515625 -0.03125 C 1.859375 -0.03125 2.21875 0 2.546875 0 C 2.59375 0 2.71875 0 2.71875 -0.203125 C 2.71875 -0.296875 2.625 -0.3125 2.515625 -0.3125 C 1.9375 -0.328125 1.859375 -0.546875 1.859375 -0.75 C 1.859375 -0.8125 1.875 -0.875 1.90625 -0.984375 L 3.21875 -6.234375 C 3.265625 -6.1875 3.265625 -6.15625 3.3125 -6.0625 L 5.796875 -0.1875 C 5.859375 -0.015625 5.890625 0 5.984375 0 C 6.09375 0 6.09375 -0.03125 6.140625 -0.203125 Z M 7.53125 -5.765625 "/>
</g>
<g id="glyph-2-3">
<path d="M 7.171875 -6.5625 C 7.1875 -6.609375 7.203125 -6.65625 7.203125 -6.71875 C 7.203125 -6.8125 7.15625 -6.8125 6.953125 -6.8125 L 2.75 -6.8125 C 2.515625 -6.8125 2.5 -6.796875 2.4375 -6.609375 L 1.890625 -4.8125 C 1.875 -4.765625 1.859375 -4.6875 1.859375 -4.671875 C 1.859375 -4.671875 1.859375 -4.5625 1.984375 -4.5625 C 2.078125 -4.5625 2.09375 -4.640625 2.109375 -4.671875 C 2.5 -5.84375 3.015625 -6.5 4.5625 -6.5 L 6.1875 -6.5 L 0.625 -0.265625 C 0.625 -0.265625 0.578125 -0.125 0.578125 -0.09375 C 0.578125 0 0.640625 0 0.828125 0 L 5.15625 0 C 5.40625 0 5.40625 -0.015625 5.46875 -0.203125 L 6.1875 -2.40625 C 6.1875 -2.4375 6.21875 -2.515625 6.21875 -2.546875 C 6.21875 -2.609375 6.1875 -2.65625 6.09375 -2.65625 C 6 -2.65625 5.984375 -2.625 5.921875 -2.40625 C 5.484375 -1.0625 5 -0.34375 3.3125 -0.34375 L 1.609375 -0.34375 Z M 7.171875 -6.5625 "/>
</g>
<g id="glyph-2-4">
<path d="M 3.734375 -6.046875 C 3.8125 -6.40625 3.84375 -6.5 4.640625 -6.5 C 4.875 -6.5 4.953125 -6.5 4.953125 -6.6875 C 4.953125 -6.8125 4.84375 -6.8125 4.8125 -6.8125 C 4.515625 -6.8125 3.78125 -6.78125 3.484375 -6.78125 C 3.1875 -6.78125 2.46875 -6.8125 2.15625 -6.8125 C 2.09375 -6.8125 1.96875 -6.8125 1.96875 -6.609375 C 1.96875 -6.5 2.046875 -6.5 2.25 -6.5 C 2.65625 -6.5 2.9375 -6.5 2.9375 -6.3125 C 2.9375 -6.265625 2.9375 -6.234375 2.90625 -6.15625 L 1.5625 -0.78125 C 1.46875 -0.40625 1.453125 -0.3125 0.65625 -0.3125 C 0.421875 -0.3125 0.34375 -0.3125 0.34375 -0.109375 C 0.34375 0 0.453125 0 0.484375 0 C 0.78125 0 1.5 -0.03125 1.796875 -0.03125 C 2.09375 -0.03125 2.828125 0 3.125 0 C 3.203125 0 3.328125 0 3.328125 -0.1875 C 3.328125 -0.3125 3.25 -0.3125 3.03125 -0.3125 C 2.84375 -0.3125 2.796875 -0.3125 2.609375 -0.328125 C 2.390625 -0.34375 2.359375 -0.390625 2.359375 -0.5 C 2.359375 -0.578125 2.375 -0.65625 2.390625 -0.734375 Z M 3.734375 -6.046875 "/>
</g>
<g id="glyph-3-0">
<path d="M 3 -2.625 C 2.828125 -2.578125 2.703125 -2.4375 2.703125 -2.296875 C 2.703125 -2.125 2.84375 -2.0625 2.9375 -2.0625 C 3.015625 -2.0625 3.28125 -2.109375 3.28125 -2.46875 C 3.28125 -2.921875 2.78125 -3.078125 2.34375 -3.078125 C 1.265625 -3.078125 1.0625 -2.265625 1.0625 -2.0625 C 1.0625 -1.796875 1.21875 -1.625 1.3125 -1.546875 C 1.484375 -1.40625 1.609375 -1.375 2.09375 -1.296875 C 2.25 -1.265625 2.6875 -1.1875 2.6875 -0.84375 C 2.6875 -0.71875 2.609375 -0.453125 2.328125 -0.28125 C 2.046875 -0.125 1.703125 -0.125 1.625 -0.125 C 1.34375 -0.125 0.953125 -0.1875 0.78125 -0.421875 C 1.015625 -0.453125 1.171875 -0.625 1.171875 -0.8125 C 1.171875 -0.984375 1.046875 -1.078125 0.90625 -1.078125 C 0.703125 -1.078125 0.5 -0.90625 0.5 -0.609375 C 0.5 -0.1875 0.9375 0.0625 1.609375 0.0625 C 2.90625 0.0625 3.140625 -0.8125 3.140625 -1.078125 C 3.140625 -1.71875 2.4375 -1.84375 2.171875 -1.890625 C 2.109375 -1.90625 1.9375 -1.9375 1.890625 -1.953125 C 1.640625 -2 1.515625 -2.140625 1.515625 -2.296875 C 1.515625 -2.453125 1.640625 -2.640625 1.796875 -2.75 C 1.984375 -2.859375 2.21875 -2.875 2.34375 -2.875 C 2.484375 -2.875 2.84375 -2.859375 3 -2.625 Z M 3 -2.625 "/>
</g>
<g id="glyph-3-1">
<path d="M 2.875 -4.1875 C 2.9375 -4.4375 2.953125 -4.515625 3.59375 -4.515625 C 3.8125 -4.515625 3.875 -4.515625 3.875 -4.65625 C 3.875 -4.671875 3.875 -4.765625 3.765625 -4.765625 C 3.609375 -4.765625 3.421875 -4.75 3.25 -4.734375 C 3.078125 -4.734375 2.859375 -4.734375 2.6875 -4.734375 C 2.546875 -4.734375 2.359375 -4.734375 2.203125 -4.734375 C 2.0625 -4.734375 1.890625 -4.765625 1.75 -4.765625 C 1.71875 -4.765625 1.609375 -4.765625 1.609375 -4.609375 C 1.609375 -4.515625 1.6875 -4.515625 1.828125 -4.515625 C 1.84375 -4.515625 1.96875 -4.515625 2.09375 -4.5 C 2.25 -4.484375 2.265625 -4.46875 2.265625 -4.390625 C 2.265625 -4.390625 2.265625 -4.34375 2.234375 -4.25 L 1.296875 -0.546875 C 1.234375 -0.3125 1.21875 -0.25 0.6875 -0.25 C 0.578125 -0.25 0.484375 -0.25 0.484375 -0.109375 C 0.484375 0 0.5625 0 0.6875 0 L 4.1875 0 C 4.375 0 4.375 0 4.4375 -0.140625 C 4.5 -0.328125 5.03125 -1.671875 5.03125 -1.734375 C 5.03125 -1.75 5.015625 -1.828125 4.90625 -1.828125 C 4.828125 -1.828125 4.8125 -1.796875 4.765625 -1.6875 C 4.5 -1.03125 4.1875 -0.25 2.921875 -0.25 L 2.125 -0.25 C 1.921875 -0.25 1.90625 -0.265625 1.90625 -0.328125 C 1.90625 -0.328125 1.90625 -0.359375 1.9375 -0.46875 Z M 2.875 -4.1875 "/>
</g>
<g id="glyph-4-0">
<path d="M 2.328125 -4.4375 C 2.328125 -4.625 2.328125 -4.625 2.125 -4.625 C 1.671875 -4.1875 1.046875 -4.1875 0.765625 -4.1875 L 0.765625 -3.9375 C 0.921875 -3.9375 1.390625 -3.9375 1.765625 -4.125 L 1.765625 -0.578125 C 1.765625 -0.34375 1.765625 -0.25 1.078125 -0.25 L 0.8125 -0.25 L 0.8125 0 C 0.9375 0 1.796875 -0.03125 2.046875 -0.03125 C 2.265625 -0.03125 3.140625 0 3.296875 0 L 3.296875 -0.25 L 3.03125 -0.25 C 2.328125 -0.25 2.328125 -0.34375 2.328125 -0.578125 Z M 2.328125 -4.4375 "/>
</g>
<g id="glyph-4-1">
<path d="M 3.515625 -1.265625 L 3.28125 -1.265625 C 3.265625 -1.109375 3.1875 -0.703125 3.09375 -0.640625 C 3.046875 -0.59375 2.515625 -0.59375 2.40625 -0.59375 L 1.125 -0.59375 C 1.859375 -1.234375 2.109375 -1.4375 2.515625 -1.765625 C 3.03125 -2.171875 3.515625 -2.609375 3.515625 -3.265625 C 3.515625 -4.109375 2.78125 -4.625 1.890625 -4.625 C 1.03125 -4.625 0.4375 -4.015625 0.4375 -3.375 C 0.4375 -3.03125 0.734375 -2.984375 0.8125 -2.984375 C 0.96875 -2.984375 1.171875 -3.109375 1.171875 -3.359375 C 1.171875 -3.484375 1.125 -3.734375 0.765625 -3.734375 C 0.984375 -4.21875 1.453125 -4.375 1.78125 -4.375 C 2.484375 -4.375 2.84375 -3.828125 2.84375 -3.265625 C 2.84375 -2.65625 2.40625 -2.1875 2.1875 -1.9375 L 0.515625 -0.265625 C 0.4375 -0.203125 0.4375 -0.1875 0.4375 0 L 3.3125 0 Z M 3.515625 -1.265625 "/>
</g>
<g id="glyph-5-0">
<path d="M 1.40625 -5.46875 L 0.59375 -5.46875 L 0.59375 -4.65625 L 1.40625 -4.65625 Z M 1.34375 -3.53125 L 0.671875 -3.53125 L 0.671875 0 L 1.34375 0 Z M 1.34375 -3.53125 "/>
</g>
<g id="glyph-5-1">
<path d="M 3.6875 -5.53125 L 3.015625 -5.53125 L 3.015625 -3.203125 C 2.515625 -3.5625 1.984375 -3.625 1.765625 -3.625 C 0.921875 -3.625 0.28125 -2.78125 0.28125 -1.765625 C 0.28125 -0.75 0.921875 0.078125 1.734375 0.078125 C 2.234375 0.078125 2.6875 -0.140625 3 -0.421875 L 3 0 L 3.6875 0 Z M 3 -0.984375 C 2.796875 -0.65625 2.5 -0.453125 2.109375 -0.453125 C 1.546875 -0.453125 0.984375 -0.84375 0.984375 -1.765625 C 0.984375 -2.75 1.65625 -3.09375 2.203125 -3.09375 C 2.515625 -3.09375 2.78125 -2.953125 3 -2.6875 Z M 3 -0.984375 "/>
</g>
<g id="glyph-5-2">
<path d="M 3.421875 -0.875 C 2.984375 -0.546875 2.484375 -0.453125 2.140625 -0.453125 C 1.4375 -0.453125 0.921875 -1.015625 0.890625 -1.75 L 3.5 -1.75 C 3.5 -2.109375 3.46875 -2.640625 3.15625 -3.09375 C 2.875 -3.5 2.390625 -3.65625 2 -3.65625 C 1.03125 -3.65625 0.28125 -2.8125 0.28125 -1.796875 C 0.28125 -0.765625 1.078125 0.078125 2.125 0.078125 C 2.59375 0.078125 3.0625 -0.0625 3.46875 -0.296875 Z M 0.953125 -2.21875 C 1.125 -2.859375 1.609375 -3.125 2 -3.125 C 2.34375 -3.125 2.875 -2.96875 3.015625 -2.21875 Z M 0.953125 -2.21875 "/>
</g>
<g id="glyph-5-3">
<path d="M 3.390625 -2.296875 C 3.390625 -3.109375 2.765625 -3.65625 1.984375 -3.65625 C 1.484375 -3.65625 1.09375 -3.546875 0.65625 -3.3125 L 0.703125 -2.734375 C 0.96875 -2.90625 1.359375 -3.140625 1.984375 -3.140625 C 2.328125 -3.140625 2.703125 -2.890625 2.703125 -2.28125 L 2.703125 -1.96875 C 1.515625 -1.921875 0.359375 -1.6875 0.359375 -0.9375 C 0.359375 -0.546875 0.625 0.078125 1.328125 0.078125 C 1.671875 0.078125 2.296875 0.015625 2.71875 -0.296875 L 2.71875 0 L 3.390625 0 Z M 2.703125 -1.125 C 2.703125 -0.96875 2.703125 -0.765625 2.421875 -0.59375 C 2.171875 -0.453125 1.859375 -0.453125 1.765625 -0.453125 C 1.328125 -0.453125 1 -0.640625 1 -0.953125 C 1 -1.453125 2.34375 -1.5 2.703125 -1.515625 Z M 2.703125 -1.125 "/>
</g>
<g id="glyph-5-4">
<path d="M 1.34375 -5.53125 L 0.671875 -5.53125 L 0.671875 0 L 1.34375 0 Z M 1.34375 -5.53125 "/>
</g>
<g id="glyph-6-0">
<path d="M 1.21875 -4.78125 L 0.515625 -4.78125 L 0.515625 -4.078125 L 1.21875 -4.078125 Z M 1.171875 -3.09375 L 0.578125 -3.09375 L 0.578125 0 L 1.171875 0 Z M 1.171875 -3.09375 "/>
</g>
<g id="glyph-6-1">
<path d="M 3.234375 -2.0625 C 3.234375 -2.609375 3.078125 -3.15625 2.21875 -3.15625 C 1.828125 -3.15625 1.4375 -3 1.140625 -2.640625 L 1.140625 -3.140625 L 0.578125 -3.140625 L 0.578125 0 L 1.1875 0 L 1.1875 -1.6875 C 1.1875 -2.15625 1.375 -2.703125 1.921875 -2.703125 C 2.640625 -2.703125 2.640625 -2.21875 2.640625 -2.015625 L 2.640625 0 L 3.234375 0 Z M 3.234375 -2.0625 "/>
</g>
</g>
</defs>
<path fill="none" stroke-width="0.79701" stroke-linecap="butt" stroke-linejoin="miter" stroke="rgb(0%, 0%, 0%)" stroke-opacity="1" stroke-miterlimit="10" d="M -0.0009375 113.388375 L -0.0009375 68.599312 M -0.0009375 44.786812 L -0.0009375 0.00165625 " transform="matrix(1, 0, 0, -1, 22.665, 150.029)"/>
<path fill="none" stroke-width="1.59404" stroke-linecap="butt" stroke-linejoin="miter" stroke="rgb(0%, 0%, 0%)" stroke-opacity="1" stroke-miterlimit="10" d="M 11.905313 56.693062 C 11.905313 63.267281 6.577188 68.599312 -0.0009375 68.599312 C -6.575156 68.599312 -11.907187 63.267281 -11.907187 56.693062 C -11.907187 50.118844 -6.575156 44.786812 -0.0009375 44.786812 C 6.577188 44.786812 11.905313 50.118844 11.905313 56.693062 Z M 11.905313 56.693062 " transform="matrix(1, 0, 0, -1, 22.665, 150.029)"/>
<g fill="rgb(0%, 0%, 0%)" fill-opacity="1">
<use xlink:href="#glyph-0-0" x="18.791" y="100.84"/>
</g>
<g fill="rgb(0%, 0%, 0%)" fill-opacity="1">
<use xlink:href="#glyph-1-0" x="18.791" y="90.814"/>
</g>
<g fill="rgb(0%, 0%, 0%)" fill-opacity="1">
<use xlink:href="#glyph-2-0" x="40.772" y="95.993"/>
</g>
<g fill="rgb(0%, 0%, 0%)" fill-opacity="1">
<use xlink:href="#glyph-3-0" x="46.583" y="97.487"/>
</g>
<path fill="none" stroke-width="0.79701" stroke-linecap="butt" stroke-linejoin="miter" stroke="rgb(0%, 0%, 0%)" stroke-opacity="1" stroke-miterlimit="10" d="M -0.0009375 113.388375 L 26.6475 113.388375 M 58.393594 113.388375 L 85.042031 113.388375 " transform="matrix(1, 0, 0, -1, 22.665, 150.029)"/>
<path fill="none" stroke-width="1.59404" stroke-linecap="butt" stroke-linejoin="bevel" stroke="rgb(0%, 0%, 0%)" stroke-opacity="1" stroke-miterlimit="10" d="M 25.850625 113.388375 L 29.358438 119.3415 L 34.784219 107.43525 L 40.206094 119.3415 L 45.631875 107.43525 L 51.05375 119.3415 L 56.479531 107.43525 L 59.190469 113.388375 " transform="matrix(1, 0, 0, -1, 22.665, 150.029)"/>
<g fill="rgb(0%, 0%, 0%)" fill-opacity="1">
<use xlink:href="#glyph-2-1" x="59.273" y="26.774"/>
</g>
<g fill="rgb(0%, 0%, 0%)" fill-opacity="1">
<use xlink:href="#glyph-3-0" x="66.838" y="28.269"/>
</g>
<path fill-rule="nonzero" fill="rgb(0%, 0%, 0%)" fill-opacity="1" d="M 109.699219 36.640625 C 109.699219 35.542969 108.804688 34.648438 107.707031 34.648438 C 106.605469 34.648438 105.710938 35.542969 105.710938 36.640625 C 105.710938 37.742188 106.605469 38.632812 107.707031 38.632812 C 108.804688 38.632812 109.699219 37.742188 109.699219 36.640625 Z M 109.699219 36.640625 "/>
<path fill-rule="nonzero" fill="rgb(0%, 0%, 0%)" fill-opacity="1" d="M 109.699219 150.027344 C 109.699219 148.929688 108.804688 148.035156 107.707031 148.035156 C 106.605469 148.035156 105.710938 148.929688 105.710938 150.027344 C 105.710938 151.128906 106.605469 152.023438 107.707031 152.023438 C 108.804688 152.023438 109.699219 151.128906 109.699219 150.027344 Z M 109.699219 150.027344 "/>
<path fill="none" stroke-width="0.79701" stroke-linecap="butt" stroke-linejoin="miter" stroke="rgb(0%, 0%, 0%)" stroke-opacity="1" stroke-miterlimit="10" d="M 85.042031 113.388375 L 85.042031 89.861031 M 85.042031 66.048531 L 85.042031 42.521187 " transform="matrix(1, 0, 0, -1, 22.665, 150.029)"/>
<path fill="none" stroke-width="1.59404" stroke-linecap="butt" stroke-linejoin="bevel" stroke="rgb(0%, 0%, 0%)" stroke-opacity="1" stroke-miterlimit="10" d="M 84.721719 90.657906 C 88.010781 90.657906 90.674844 88.986031 90.674844 86.923531 C 90.674844 84.864937 88.010781 83.193062 84.721719 83.193062 C 83.077188 83.193062 81.745156 83.861031 81.745156 84.681344 C 81.745156 85.505562 83.077188 86.169625 84.721719 86.169625 C 88.010781 86.169625 90.674844 84.501656 90.674844 82.439156 C 90.674844 80.380562 88.010781 78.708687 84.721719 78.708687 C 83.077188 78.708687 81.745156 79.376656 81.745156 80.196969 C 81.745156 81.017281 83.077188 81.68525 84.721719 81.68525 C 88.010781 81.68525 90.674844 80.013375 90.674844 77.954781 C 90.674844 75.892281 88.010781 74.224312 84.721719 74.224312 C 83.077188 74.224312 81.745156 74.888375 81.745156 75.712594 C 81.745156 76.532906 83.077188 77.200875 84.721719 77.200875 C 88.010781 77.200875 90.674844 75.529 90.674844 73.4665 C 90.674844 71.407906 88.010781 69.736031 84.721719 69.736031 C 83.077188 69.736031 81.745156 70.404 81.745156 71.224312 C 81.745156 72.048531 83.077188 72.712594 84.721719 72.712594 C 88.010781 72.712594 90.674844 71.044625 90.674844 68.982125 C 90.674844 66.919625 88.010781 65.251656 84.721719 65.251656 " transform="matrix(1, 0, 0, -1, 22.665, 150.029)"/>
<path fill="none" stroke-width="0.79701" stroke-linecap="butt" stroke-linejoin="miter" stroke="rgb(0%, 0%, 0%)" stroke-opacity="1" stroke-miterlimit="10" d="M 85.042031 42.521187 L 85.042031 0.00165625 " transform="matrix(1, 0, 0, -1, 22.665, 150.029)"/>
<path fill="none" stroke-width="0.79701" stroke-linecap="butt" stroke-linejoin="miter" stroke="rgb(0%, 0%, 0%)" stroke-opacity="1" stroke-miterlimit="10" d="M 107.717813 14.173531 L 107.717813 104.884469 " transform="matrix(1, 0, 0, -1, 22.665, 150.029)"/>
<path fill="none" stroke-width="0.79701" stroke-linecap="butt" stroke-linejoin="miter" stroke="rgb(0%, 0%, 0%)" stroke-opacity="1" stroke-miterlimit="10" d="M 119.057656 14.173531 L 119.057656 104.884469 " transform="matrix(1, 0, 0, -1, 22.665, 150.029)"/>
<path fill="none" stroke-width="0.79701" stroke-linecap="butt" stroke-linejoin="miter" stroke="rgb(0%, 0%, 0%)" stroke-opacity="1" stroke-miterlimit="10" d="M 141.733438 113.388375 L 141.733438 89.861031 M 141.733438 66.048531 L 141.733438 42.521187 " transform="matrix(1, 0, 0, -1, 22.665, 150.029)"/>
<path fill="none" stroke-width="1.59404" stroke-linecap="butt" stroke-linejoin="bevel" stroke="rgb(0%, 0%, 0%)" stroke-opacity="1" stroke-miterlimit="10" d="M 141.417031 90.657906 C 144.702188 90.657906 147.36625 88.986031 147.36625 86.923531 C 147.36625 84.864937 144.702188 83.193062 141.417031 83.193062 C 139.7725 83.193062 138.440469 83.861031 138.440469 84.681344 C 138.440469 85.505562 139.7725 86.169625 141.417031 86.169625 C 144.702188 86.169625 147.36625 84.501656 147.36625 82.439156 C 147.36625 80.380562 144.702188 78.708687 141.417031 78.708687 C 139.7725 78.708687 138.440469 79.376656 138.440469 80.196969 C 138.440469 81.017281 139.7725 81.68525 141.417031 81.68525 C 144.702188 81.68525 147.36625 80.013375 147.36625 77.954781 C 147.36625 75.892281 144.702188 74.224312 141.417031 74.224312 C 139.7725 74.224312 138.440469 74.888375 138.440469 75.712594 C 138.440469 76.532906 139.7725 77.200875 141.417031 77.200875 C 144.702188 77.200875 147.36625 75.529 147.36625 73.4665 C 147.36625 71.407906 144.702188 69.736031 141.417031 69.736031 C 139.7725 69.736031 138.440469 70.404 138.440469 71.224312 C 138.440469 72.048531 139.7725 72.712594 141.417031 72.712594 C 144.702188 72.712594 147.36625 71.044625 147.36625 68.982125 C 147.36625 66.919625 144.702188 65.251656 141.417031 65.251656 " transform="matrix(1, 0, 0, -1, 22.665, 150.029)"/>
<path fill="none" stroke-width="0.79701" stroke-linecap="butt" stroke-linejoin="miter" stroke="rgb(0%, 0%, 0%)" stroke-opacity="1" stroke-miterlimit="10" d="M 141.733438 42.521187 L 141.733438 0.00165625 " transform="matrix(1, 0, 0, -1, 22.665, 150.029)"/>
<g fill="rgb(0%, 0%, 0%)" fill-opacity="1">
<use xlink:href="#glyph-2-2" x="119.426" y="22.926"/>
</g>
<g fill="rgb(0%, 0%, 0%)" fill-opacity="1">
<use xlink:href="#glyph-4-0" x="127.431" y="24.42"/>
</g>
<g fill="rgb(0%, 0%, 0%)" fill-opacity="1">
<use xlink:href="#glyph-1-1" x="134.667" y="22.926"/>
</g>
<g fill="rgb(0%, 0%, 0%)" fill-opacity="1">
<use xlink:href="#glyph-2-2" x="140.202" y="22.926"/>
</g>
<g fill="rgb(0%, 0%, 0%)" fill-opacity="1">
<use xlink:href="#glyph-4-1" x="148.207" y="24.42"/>
</g>
<path fill-rule="nonzero" fill="rgb(0%, 0%, 0%)" fill-opacity="1" d="M 116.363281 42.3125 C 116.363281 40.660156 115.027344 39.320312 113.375 39.320312 C 111.722656 39.320312 110.386719 40.660156 110.386719 42.3125 C 110.386719 43.960938 111.722656 45.300781 113.375 45.300781 C 115.027344 45.300781 116.363281 43.960938 116.363281 42.3125 Z M 116.363281 42.3125 "/>
<path fill-rule="nonzero" fill="rgb(0%, 0%, 0%)" fill-opacity="1" d="M 161.71875 42.3125 C 161.71875 40.660156 160.378906 39.320312 158.730469 39.320312 C 157.078125 39.320312 155.742188 40.660156 155.742188 42.3125 C 155.742188 43.960938 157.078125 45.300781 158.730469 45.300781 C 160.378906 45.300781 161.71875 43.960938 161.71875 42.3125 Z M 161.71875 42.3125 "/>
<g fill="rgb(0%, 0%, 0%)" fill-opacity="1">
<use xlink:href="#glyph-5-0" x="127.929" y="96.103"/>
<use xlink:href="#glyph-5-1" x="129.94942" y="96.103"/>
<use xlink:href="#glyph-5-2" x="134.321817" y="96.103"/>
<use xlink:href="#glyph-5-3" x="138.085298" y="96.103"/>
<use xlink:href="#glyph-5-4" x="142.153237" y="96.103"/>
</g>
<path fill-rule="nonzero" fill="rgb(0%, 0%, 0%)" fill-opacity="1" d="M 166.390625 36.640625 C 166.390625 35.542969 165.5 34.648438 164.398438 34.648438 C 163.296875 34.648438 162.40625 35.542969 162.40625 36.640625 C 162.40625 37.742188 163.296875 38.632812 164.398438 38.632812 C 165.5 38.632812 166.390625 37.742188 166.390625 36.640625 Z M 166.390625 36.640625 "/>
<path fill-rule="nonzero" fill="rgb(0%, 0%, 0%)" fill-opacity="1" d="M 166.390625 150.027344 C 166.390625 148.929688 165.5 148.035156 164.398438 148.035156 C 163.296875 148.035156 162.40625 148.929688 162.40625 150.027344 C 162.40625 151.128906 163.296875 152.023438 164.398438 152.023438 C 165.5 152.023438 166.390625 151.128906 166.390625 150.027344 Z M 166.390625 150.027344 "/>
<path fill="none" stroke-width="0.79701" stroke-linecap="butt" stroke-linejoin="miter" stroke="rgb(0%, 0%, 0%)" stroke-opacity="1" stroke-miterlimit="10" d="M 141.733438 113.388375 L 198.42875 113.388375 " transform="matrix(1, 0, 0, -1, 22.665, 150.029)"/>
<path fill="none" stroke-width="0.79701" stroke-linecap="butt" stroke-linejoin="miter" stroke="rgb(0%, 0%, 0%)" stroke-opacity="1" stroke-miterlimit="10" d="M 198.42875 113.388375 L 198.42875 72.568062 M 198.42875 40.818062 L 198.42875 0.00165625 " transform="matrix(1, 0, 0, -1, 22.665, 150.029)"/>
<path fill="none" stroke-width="1.59404" stroke-linecap="butt" stroke-linejoin="bevel" stroke="rgb(0%, 0%, 0%)" stroke-opacity="1" stroke-miterlimit="10" d="M 198.42875 73.364937 L 204.381875 69.857125 L 192.475625 64.431344 L 204.381875 59.005562 L 192.475625 53.583687 L 204.381875 48.157906 L 192.475625 42.736031 L 198.42875 40.021187 " transform="matrix(1, 0, 0, -1, 22.665, 150.029)"/>
<g fill="rgb(0%, 0%, 0%)" fill-opacity="1">
<use xlink:href="#glyph-2-1" x="229.299" y="95.55"/>
</g>
<g fill="rgb(0%, 0%, 0%)" fill-opacity="1">
<use xlink:href="#glyph-3-1" x="236.863" y="97.044"/>
</g>
<path fill="none" stroke-width="0.79701" stroke-linecap="butt" stroke-linejoin="miter" stroke="rgb(0%, 0%, 0%)" stroke-opacity="1" stroke-miterlimit="10" d="M 198.42875 0.00165625 L 141.733438 0.00165625 " transform="matrix(1, 0, 0, -1, 22.665, 150.029)"/>
<path fill="none" stroke-width="0.79701" stroke-linecap="butt" stroke-linejoin="miter" stroke="rgb(0%, 0%, 0%)" stroke-opacity="1" stroke-miterlimit="10" d="M -0.0009375 0.00165625 L 85.042031 0.00165625 " transform="matrix(1, 0, 0, -1, 22.665, 150.029)"/>
<path fill="none" stroke-width="0.79701" stroke-linecap="butt" stroke-linejoin="miter" stroke="rgb(69.999695%, 0%, 0%)" stroke-opacity="1" stroke-miterlimit="10" d="M 73.702188 96.62275 L 73.702188 16.763375 " transform="matrix(1, 0, 0, -1, 22.665, 150.029)"/>
<path fill-rule="nonzero" fill="rgb(69.999695%, 0%, 0%)" fill-opacity="1" d="M 96.367188 50.816406 L 94.292969 54.960938 L 96.367188 53.40625 L 98.4375 54.960938 "/>
<path fill-rule="nonzero" fill="rgb(69.999695%, 0%, 0%)" fill-opacity="1" d="M 96.367188 135.855469 L 98.4375 131.710938 L 96.367188 133.265625 L 94.292969 131.710938 "/>
<g fill="rgb(69.999695%, 0%, 0%)" fill-opacity="1">
<use xlink:href="#glyph-2-3" x="76.92" y="95.993"/>
</g>
<g fill="rgb(69.999695%, 0%, 0%)" fill-opacity="1">
<use xlink:href="#glyph-6-0" x="83.721" y="97.487"/>
<use xlink:href="#glyph-6-1" x="85.488858" y="97.487"/>
</g>
<path fill="none" stroke-width="0.79701" stroke-linecap="butt" stroke-linejoin="miter" stroke="rgb(0%, 0%, 0%)" stroke-opacity="1" stroke-miterlimit="10" d="M 28.346719 124.724312 L 68.276406 124.724312 " transform="matrix(1, 0, 0, -1, 22.665, 150.029)"/>
<path fill-rule="nonzero" fill="rgb(0%, 0%, 0%)" fill-opacity="1" d="M 93.53125 25.304688 L 89.386719 23.230469 L 90.941406 25.304688 L 89.386719 27.375 "/>
<g fill="rgb(0%, 0%, 0%)" fill-opacity="1">
<use xlink:href="#glyph-2-4" x="67.847" y="20.091"/>
</g>
<g fill="rgb(0%, 0%, 0%)" fill-opacity="1">
<use xlink:href="#glyph-4-0" x="72.226" y="21.586"/>
</g>
</svg>
